<?xml version="1.0" encoding="UTF-8"?>
<svg xmlns="http://www.w3.org/2000/svg" xmlns:xlink="http://www.w3.org/1999/xlink" width="64px" height="32px" viewBox="0 0 64 32" version="1.1">
<defs>
<radialGradient id="radial0" gradientUnits="userSpaceOnUse" cx="673.844971" cy="1118.776978" fx="673.844971" fy="1118.776978" r="646.025024" gradientTransform="matrix(0.0615297,-0.0103308,0.00628227,0.0373462,-43.307105,-7.915051)">
<stop offset="0" style="stop-color:rgb(99.607843%,83.529412%,46.27451%);stop-opacity:1;"/>
<stop offset="0.263" style="stop-color:rgb(95.686275%,44.313725%,20%);stop-opacity:1;"/>
<stop offset="0.609" style="stop-color:rgb(73.72549%,18.823529%,50.588235%);stop-opacity:1;"/>
<stop offset="1" style="stop-color:rgb(29.803922%,38.823529%,82.352941%);stop-opacity:1;"/>
</radialGradient>
<radialGradient id="radial1" gradientUnits="userSpaceOnUse" cx="673.844971" cy="1118.776978" fx="673.844971" fy="1118.776978" r="646.025024" gradientTransform="matrix(0.0615297,-0.0103308,0.00628227,0.0373462,-43.307105,-7.915051)">
<stop offset="0" style="stop-color:rgb(99.607843%,83.529412%,46.27451%);stop-opacity:1;"/>
<stop offset="0.263" style="stop-color:rgb(95.686275%,44.313725%,20%);stop-opacity:1;"/>
<stop offset="0.609" style="stop-color:rgb(73.72549%,18.823529%,50.588235%);stop-opacity:1;"/>
<stop offset="1" style="stop-color:rgb(29.803922%,38.823529%,82.352941%);stop-opacity:1;"/>
</radialGradient>
<radialGradient id="radial2" gradientUnits="userSpaceOnUse" cx="673.844971" cy="1118.776978" fx="673.844971" fy="1118.776978" r="646.025024" gradientTransform="matrix(0.0615297,-0.0103308,0.00628227,0.0373462,-43.307105,-7.915051)">
<stop offset="0" style="stop-color:rgb(99.607843%,83.529412%,46.27451%);stop-opacity:1;"/>
<stop offset="0.263" style="stop-color:rgb(95.686275%,44.313725%,20%);stop-opacity:1;"/>
<stop offset="0.609" style="stop-color:rgb(73.72549%,18.823529%,50.588235%);stop-opacity:1;"/>
<stop offset="1" style="stop-color:rgb(29.803922%,38.823529%,82.352941%);stop-opacity:1;"/>
</radialGradient>
</defs>
<g id="surface1">
<path style=" stroke:none;fill-rule:nonzero;fill:rgb(8.627451%,21.568628%,37.254903%);fill-opacity:1;" d="M 23.585938 12.976562 C 24.332031 12.242188 24.792969 12.222656 24.792969 12.222656 C 24.964844 12.21875 25.136719 12.253906 25.292969 12.324219 C 25.644531 12.445312 25.667969 12.640625 25.667969 12.640625 L 25.667969 18.007812 C 25.710938 19.511719 25.335938 20.089844 24.890625 20.488281 C 24.753906 20.613281 24.585938 20.695312 24.40625 20.722656 C 24.292969 20.527344 24.316406 20.425781 24.351562 20.328125 C 24.578125 19.75 24.558594 18.753906 24.558594 18.753906 L 24.582031 12.96875 C 24.582031 12.96875 24.597656 12.863281 24.507812 12.90625 C 23.625 13.664062 23.515625 14.734375 23.488281 15.253906 C 23.472656 16.03125 23.804688 16.433594 23.804688 16.433594 C 23.855469 16.480469 23.882812 16.546875 23.878906 16.617188 C 23.410156 16.722656 22.878906 16.351562 22.691406 15.898438 C 22.59375 15.679688 22.539062 15.441406 22.535156 15.203125 C 22.617188 14.359375 22.992188 13.574219 23.589844 12.976562 Z M 62.058594 18.101562 C 62.058594 19.828125 61.011719 19.800781 61.011719 19.800781 C 60.019531 19.835938 59.765625 18.785156 59.703125 17.71875 C 59.65625 16.914062 59.703125 16.019531 59.703125 16.019531 C 59.703125 16.019531 59.703125 15.980469 59.667969 16.019531 C 59.335938 16.621094 59.109375 17.539062 58.996094 18.246094 C 58.949219 18.5625 58.917969 18.878906 58.910156 19.195312 C 58.300781 19.601562 57.953125 19.25 57.832031 18.855469 C 57.671875 18.484375 57.570312 16.242188 57.570312 16.125 C 57.570312 16.007812 57.476562 16.085938 57.476562 16.085938 C 56.730469 17.332031 56.722656 19.171875 56.722656 19.542969 C 56.722656 19.910156 56.089844 19.796875 56.089844 19.796875 C 55.550781 19.757812 55.570312 19.492188 55.570312 19.492188 L 55.546875 19.046875 C 55.359375 19.394531 55.011719 19.835938 54.476562 19.808594 C 53.664062 19.753906 53.507812 18.914062 53.492188 18.773438 C 53.492188 18.773438 53.089844 19.820312 51.980469 19.808594 C 51.222656 19.796875 50.921875 19.019531 50.921875 19.019531 C 50.921875 19.019531 50.617188 19.835938 49.875 19.808594 C 49.132812 19.78125 48.519531 18.921875 48.566406 17.808594 C 48.578125 17.246094 48.652344 16.6875 48.792969 16.140625 C 48.792969 16.140625 48.851562 16.035156 48.75 16.023438 C 48.648438 16.011719 48.007812 16.03125 48.007812 16.03125 C 48.007812 16.03125 47.644531 17.488281 46.113281 19.296875 L 46.125 20.492188 C 46.125 21.679688 45.976562 23.273438 44.363281 23.40625 C 42.96875 23.308594 43.050781 22.238281 43.050781 22.238281 C 43.015625 21.921875 43.214844 21.339844 44.046875 20.558594 L 45.210938 19.480469 L 45.175781 18.980469 C 44.644531 19.859375 43.832031 19.8125 43.832031 19.8125 C 43.832031 19.8125 43.199219 19.9375 42.671875 19.003906 C 42.515625 19.320312 42.164062 19.871094 41.585938 19.808594 C 40.777344 19.71875 40.613281 18.910156 40.601562 18.765625 C 40.601562 18.765625 40.195312 19.820312 39.078125 19.808594 C 38.320312 19.792969 38.015625 19.011719 38.015625 19.011719 C 37.933594 18.835938 37.867188 18.65625 37.824219 18.464844 L 37.792969 18.566406 C 37.621094 19.003906 37.195312 19.769531 36.542969 19.78125 C 35.339844 19.78125 35.289062 17.921875 35.289062 17.921875 C 34.941406 18.753906 34.261719 19.804688 33 19.796875 C 31.734375 19.789062 31.578125 19.332031 31.578125 19.269531 C 31.570312 19.140625 31.613281 19.015625 31.699219 18.921875 C 31.847656 18.710938 31.96875 18.621094 32.074219 18.621094 C 32.179688 18.652344 32.277344 18.707031 32.355469 18.78125 C 32.515625 18.933594 32.722656 19.027344 32.941406 19.050781 C 33.339844 19.035156 33.429688 18.714844 33.457031 18.390625 C 33.484375 18.066406 33.253906 17.71875 32.933594 17.425781 L 32.371094 16.914062 L 31.316406 18.652344 C 30.703125 19.652344 30.09375 19.804688 29.859375 19.773438 C 29.539062 19.730469 29.226562 19.398438 29.207031 18.425781 L 29.28125 15.714844 C 29.28125 15.625 29.203125 15.667969 29.203125 15.667969 C 27.988281 16.957031 27.621094 19.609375 27.621094 19.660156 C 27.578125 19.738281 27.492188 19.78125 27.40625 19.769531 C 27.296875 19.769531 27.441406 19.769531 27.007812 19.746094 C 26.574219 19.726562 26.605469 18.910156 26.605469 18.910156 L 26.632812 14.964844 C 26.632812 14.832031 26.761719 14.777344 27.175781 14.882812 C 27.585938 14.992188 27.574219 15.121094 27.574219 15.121094 L 27.558594 17.414062 C 28.621094 14.28125 29.421875 14.769531 29.910156 15.011719 C 30.394531 15.25 30.320312 15.59375 30.320312 15.59375 L 30.246094 17.925781 C 30.226562 18.535156 30.3125 18.773438 30.449219 18.796875 C 30.796875 18.878906 32.003906 16.542969 32.003906 16.542969 C 31.46875 15.964844 31.761719 15.253906 32.179688 14.949219 C 32.367188 14.820312 32.582031 14.738281 32.8125 14.71875 C 32.8125 14.71875 33.351562 14.6875 33.339844 15.144531 C 33.351562 15.644531 32.796875 16.25 32.796875 16.25 C 33.875 17.019531 34.375 17.425781 34.460938 18.019531 C 34.484375 18.175781 34.472656 18.335938 34.429688 18.488281 C 35.195312 17.820312 35.253906 17.078125 35.253906 17.078125 L 35.265625 14.585938 L 34.128906 14.570312 C 34.128906 14.570312 34.042969 14.570312 34.023438 14.351562 C 34.007812 14.140625 34.085938 13.933594 34.234375 13.785156 L 35.316406 13.800781 L 35.359375 12.496094 C 35.394531 12.234375 35.5625 12.199219 36.039062 12.324219 C 36.515625 12.445312 36.511719 12.554688 36.511719 12.554688 L 36.457031 13.867188 L 37.8125 13.9375 C 37.96875 13.953125 38.019531 13.992188 37.984375 14.257812 C 37.980469 14.394531 37.90625 14.523438 37.789062 14.59375 L 36.445312 14.621094 L 36.351562 17.511719 C 36.351562 17.957031 36.371094 19.019531 36.792969 19.003906 C 37.378906 19.03125 37.722656 17.722656 37.722656 17.722656 L 37.722656 17.710938 C 37.714844 17.46875 37.726562 17.226562 37.75 16.984375 C 37.859375 15.933594 38.335938 14.699219 39.410156 14.699219 C 39.835938 14.707031 40.21875 14.953125 40.410156 15.332031 L 40.429688 15.09375 C 40.429688 15.09375 40.40625 14.808594 40.859375 14.878906 C 41.3125 14.949219 41.464844 15.128906 41.457031 15.273438 L 41.417969 18.191406 C 41.480469 18.824219 41.589844 19.191406 41.910156 19.167969 C 42.1875 19.125 42.382812 18.75 42.5 18.429688 C 42.097656 15.09375 43.921875 14.6875 43.921875 14.6875 C 43.921875 14.6875 44.730469 14.632812 45.097656 15.300781 L 45.109375 15.078125 C 45.109375 15.078125 45.074219 14.78125 45.5 14.863281 C 45.625 14.882812 45.75 14.917969 45.867188 14.960938 C 46.058594 15.03125 46.117188 15.078125 46.117188 15.253906 L 46.082031 18.550781 C 46.082031 18.550781 47.03125 17.273438 47.269531 16.03125 C 47.078125 15.890625 46.964844 15.667969 46.957031 15.429688 C 46.980469 15.074219 47.15625 14.648438 47.679688 14.648438 C 48.203125 14.648438 48.246094 15.113281 48.167969 15.425781 C 48.167969 15.425781 48.609375 15.375 48.988281 15.269531 C 49.367188 15.164062 49.878906 15.113281 49.914062 15.707031 C 49.929688 15.835938 49.902344 15.96875 49.84375 16.085938 C 49.84375 16.085938 49.542969 17.402344 49.589844 17.9375 C 49.636719 18.46875 49.777344 19.273438 50.195312 19.175781 C 50.613281 19.082031 50.753906 18.492188 50.753906 18.492188 C 50.652344 18.007812 50.621094 17.507812 50.671875 17.015625 C 50.78125 15.96875 51.25 14.746094 52.324219 14.746094 C 52.746094 14.753906 53.132812 14.996094 53.320312 15.375 L 53.335938 15.140625 C 53.335938 15.140625 53.3125 14.855469 53.761719 14.925781 C 54.214844 14.996094 54.371094 15.175781 54.355469 15.316406 L 54.320312 18.210938 C 54.378906 18.84375 54.488281 19.207031 54.808594 19.179688 C 55.125 19.15625 55.375 18.652344 55.535156 18.234375 L 55.535156 18.074219 L 55.542969 15 C 55.554688 14.902344 55.632812 14.824219 55.730469 14.8125 L 56.097656 14.871094 C 56.617188 14.949219 56.542969 15.144531 56.542969 15.144531 L 56.542969 16.882812 C 56.929688 15.703125 57.113281 15.253906 57.285156 14.953125 C 57.433594 14.695312 57.917969 14.863281 57.917969 14.863281 C 57.917969 14.863281 58.445312 15.003906 58.453125 15.496094 C 58.4375 16.296875 58.550781 17.605469 58.550781 17.605469 C 58.550781 17.605469 58.570312 17.632812 58.578125 17.621094 C 58.738281 16.703125 58.996094 15.839844 59.363281 15.011719 C 59.550781 14.65625 60.105469 14.910156 60.105469 14.910156 C 60.769531 15.136719 60.679688 15.53125 60.679688 15.53125 C 60.484375 18.902344 60.898438 19.113281 61.148438 19.136719 C 61.394531 19.160156 61.523438 18.839844 61.574219 18.691406 C 61.628906 18.539062 61.699219 18.207031 61.734375 18.074219 C 61.757812 18 61.824219 17.945312 61.90625 17.9375 C 61.984375 17.949219 62.050781 18.015625 62.0625 18.09375 Z M 39.675781 15.519531 C 39.441406 15.527344 38.894531 15.675781 38.796875 17.199219 C 38.699219 18.722656 39.101562 19.113281 39.441406 19.15625 C 39.78125 19.199219 40.390625 18.65625 40.417969 17.039062 C 40.445312 15.421875 39.675781 15.519531 39.675781 15.519531 Z M 44.4375 15.519531 C 44.199219 15.527344 43.605469 15.734375 43.472656 17.207031 C 43.371094 18.742188 43.789062 19.140625 44.125 19.1875 C 44.464844 19.234375 45.074219 18.679688 45.117188 17.042969 C 45.160156 15.40625 44.4375 15.527344 44.4375 15.527344 Z M 45.226562 20.238281 C 43.882812 21.398438 43.765625 22.230469 43.765625 22.230469 C 43.765625 22.230469 43.632812 22.910156 44.277344 22.945312 C 45.058594 23.023438 45.1875 22.078125 45.210938 21.25 L 45.234375 20.246094 Z M 52.613281 15.574219 C 52.382812 15.582031 51.835938 15.730469 51.738281 17.253906 C 51.636719 18.773438 52.042969 19.164062 52.378906 19.210938 C 52.71875 19.253906 53.328125 18.707031 53.355469 17.09375 C 53.386719 15.476562 52.613281 15.574219 52.613281 15.574219 Z M 52.613281 15.574219 "/>
<path style=" stroke:none;fill-rule:nonzero;fill:url(#radial0);" d="M 11.6875 11.140625 C 11.519531 11.140625 11.355469 11.148438 11.191406 11.167969 C 11.027344 11.183594 10.867188 11.207031 10.707031 11.242188 C 10.550781 11.273438 10.394531 11.3125 10.242188 11.359375 L 9.792969 11.527344 L 9.367188 11.730469 L 8.964844 11.976562 L 8.589844 12.257812 L 8.242188 12.570312 L 7.929688 12.917969 L 7.648438 13.292969 L 7.402344 13.695312 L 7.195312 14.121094 C 7.132812 14.265625 7.078125 14.414062 7.03125 14.566406 C 6.984375 14.71875 6.941406 14.875 6.910156 15.035156 C 6.878906 15.191406 6.851562 15.355469 6.835938 15.515625 C 6.820312 15.679688 6.8125 15.847656 6.8125 16.011719 C 6.8125 16.179688 6.820312 16.347656 6.835938 16.511719 C 6.851562 16.671875 6.878906 16.832031 6.910156 16.992188 C 6.941406 17.152344 6.984375 17.304688 7.03125 17.457031 C 7.078125 17.609375 7.132812 17.761719 7.195312 17.90625 L 7.402344 18.332031 L 7.648438 18.734375 L 7.929688 19.109375 L 8.242188 19.457031 L 8.589844 19.769531 L 8.964844 20.050781 L 9.367188 20.296875 L 9.792969 20.5 L 10.242188 20.667969 L 10.707031 20.785156 C 10.867188 20.820312 11.027344 20.84375 11.191406 20.859375 C 11.355469 20.878906 11.523438 20.886719 11.6875 20.886719 C 11.855469 20.886719 12.023438 20.878906 12.183594 20.859375 C 12.347656 20.84375 12.507812 20.820312 12.667969 20.785156 L 13.136719 20.667969 L 13.582031 20.5 L 14.007812 20.296875 L 14.410156 20.050781 L 14.785156 19.769531 L 15.132812 19.457031 L 15.449219 19.109375 L 15.730469 18.734375 L 15.976562 18.332031 L 16.179688 17.90625 L 16.34375 17.457031 C 16.394531 17.304688 16.433594 17.152344 16.464844 16.992188 L 16.539062 16.511719 C 16.558594 16.347656 16.566406 16.179688 16.566406 16.011719 C 16.566406 15.847656 16.558594 15.679688 16.539062 15.515625 C 16.523438 15.355469 16.5 15.195312 16.464844 15.035156 C 16.433594 14.875 16.394531 14.71875 16.34375 14.566406 L 16.179688 14.121094 L 15.976562 13.695312 L 15.730469 13.292969 L 15.449219 12.917969 L 15.132812 12.570312 L 14.785156 12.257812 L 14.410156 11.976562 L 14.007812 11.730469 L 13.582031 11.527344 L 13.136719 11.359375 L 12.667969 11.242188 L 12.183594 11.167969 C 12.019531 11.148438 11.855469 11.140625 11.6875 11.140625 Z M 11.6875 12.824219 C 11.800781 12.824219 11.910156 12.828125 12.015625 12.839844 L 12.335938 12.886719 L 12.640625 12.964844 L 12.933594 13.074219 L 13.214844 13.207031 L 13.476562 13.367188 L 13.722656 13.546875 L 13.949219 13.753906 L 14.15625 13.980469 L 14.335938 14.226562 L 14.496094 14.488281 L 14.632812 14.769531 C 14.671875 14.863281 14.707031 14.960938 14.738281 15.0625 C 14.769531 15.160156 14.796875 15.265625 14.816406 15.367188 C 14.835938 15.472656 14.851562 15.578125 14.863281 15.6875 L 14.878906 16.015625 C 14.878906 16.125 14.875 16.234375 14.863281 16.339844 C 14.851562 16.449219 14.835938 16.554688 14.816406 16.660156 C 14.796875 16.765625 14.769531 16.867188 14.738281 16.964844 L 14.632812 17.261719 L 14.496094 17.539062 L 14.335938 17.800781 L 14.15625 18.046875 L 13.949219 18.273438 L 13.722656 18.480469 L 13.476562 18.664062 L 13.214844 18.820312 L 12.933594 18.957031 L 12.640625 19.0625 L 12.335938 19.140625 L 12.015625 19.1875 C 11.90625 19.199219 11.796875 19.203125 11.6875 19.203125 C 11.578125 19.203125 11.46875 19.199219 11.359375 19.1875 L 11.042969 19.140625 C 10.9375 19.121094 10.835938 19.09375 10.734375 19.0625 L 10.441406 18.957031 L 10.164062 18.820312 L 9.898438 18.664062 L 9.652344 18.480469 L 9.425781 18.273438 L 9.222656 18.046875 L 9.039062 17.800781 L 8.878906 17.539062 L 8.746094 17.261719 L 8.636719 16.964844 L 8.558594 16.660156 L 8.511719 16.339844 C 8.5 16.234375 8.496094 16.125 8.496094 16.015625 C 8.496094 15.90625 8.5 15.796875 8.511719 15.6875 C 8.523438 15.578125 8.539062 15.472656 8.558594 15.367188 C 8.582031 15.265625 8.605469 15.164062 8.636719 15.0625 L 8.746094 14.769531 L 8.878906 14.488281 L 9.039062 14.226562 L 9.222656 13.980469 L 9.425781 13.753906 L 9.652344 13.546875 L 9.898438 13.367188 L 10.164062 13.207031 L 10.441406 13.074219 C 10.539062 13.03125 10.636719 12.996094 10.734375 12.964844 L 11.042969 12.886719 C 11.148438 12.867188 11.253906 12.851562 11.359375 12.839844 C 11.46875 12.828125 11.578125 12.824219 11.6875 12.824219 Z M 11.6875 12.824219 "/>
<path style=" stroke:none;fill-rule:nonzero;fill:url(#radial1);" d="M 16.761719 9.753906 C 16.722656 9.753906 16.6875 9.757812 16.648438 9.761719 C 16.609375 9.765625 16.570312 9.769531 16.53125 9.777344 C 16.496094 9.785156 16.457031 9.796875 16.421875 9.808594 C 16.382812 9.820312 16.347656 9.832031 16.3125 9.847656 C 16.273438 9.863281 16.242188 9.878906 16.207031 9.898438 C 16.171875 9.917969 16.140625 9.9375 16.109375 9.960938 C 16.074219 9.980469 16.042969 10.003906 16.015625 10.03125 C 15.984375 10.054688 15.957031 10.082031 15.929688 10.109375 C 15.902344 10.136719 15.878906 10.167969 15.851562 10.199219 C 15.828125 10.226562 15.808594 10.261719 15.785156 10.292969 C 15.765625 10.324219 15.746094 10.359375 15.726562 10.394531 C 15.710938 10.429688 15.695312 10.464844 15.679688 10.5 C 15.667969 10.535156 15.65625 10.574219 15.644531 10.613281 C 15.632812 10.648438 15.625 10.6875 15.617188 10.726562 C 15.613281 10.765625 15.609375 10.800781 15.605469 10.839844 C 15.601562 10.867188 15.601562 10.898438 15.601562 10.925781 C 15.601562 10.964844 15.605469 11.003906 15.609375 11.039062 C 15.613281 11.078125 15.617188 11.117188 15.625 11.15625 C 15.632812 11.195312 15.640625 11.234375 15.652344 11.269531 C 15.664062 11.308594 15.679688 11.34375 15.695312 11.378906 C 15.707031 11.414062 15.726562 11.449219 15.742188 11.484375 C 15.761719 11.519531 15.78125 11.550781 15.804688 11.585938 C 15.828125 11.617188 15.851562 11.648438 15.875 11.675781 C 15.898438 11.707031 15.925781 11.734375 15.953125 11.761719 C 15.980469 11.789062 16.011719 11.816406 16.042969 11.839844 C 16.070312 11.863281 16.101562 11.886719 16.136719 11.90625 C 16.167969 11.929688 16.203125 11.949219 16.238281 11.964844 C 16.269531 11.984375 16.304688 12 16.34375 12.015625 C 16.378906 12.027344 16.414062 12.039062 16.453125 12.050781 C 16.488281 12.0625 16.527344 12.070312 16.566406 12.078125 C 16.605469 12.082031 16.640625 12.085938 16.679688 12.089844 C 16.707031 12.09375 16.734375 12.09375 16.761719 12.09375 C 16.800781 12.09375 16.839844 12.089844 16.878906 12.085938 C 16.917969 12.082031 16.957031 12.078125 16.992188 12.070312 C 17.03125 12.0625 17.070312 12.054688 17.105469 12.042969 C 17.144531 12.03125 17.179688 12.015625 17.214844 12 C 17.25 11.984375 17.285156 11.96875 17.320312 11.949219 C 17.355469 11.929688 17.386719 11.910156 17.417969 11.890625 C 17.449219 11.867188 17.480469 11.84375 17.511719 11.820312 C 17.542969 11.792969 17.570312 11.765625 17.597656 11.738281 C 17.625 11.710938 17.648438 11.679688 17.671875 11.652344 C 17.695312 11.621094 17.71875 11.589844 17.742188 11.554688 C 17.761719 11.523438 17.78125 11.488281 17.796875 11.453125 C 17.816406 11.417969 17.832031 11.382812 17.847656 11.347656 C 17.859375 11.3125 17.871094 11.273438 17.882812 11.238281 C 17.894531 11.199219 17.902344 11.160156 17.90625 11.125 C 17.914062 11.085938 17.917969 11.046875 17.921875 11.007812 C 17.921875 10.980469 17.925781 10.953125 17.925781 10.925781 C 17.925781 10.886719 17.921875 10.847656 17.917969 10.808594 C 17.914062 10.769531 17.910156 10.730469 17.902344 10.691406 C 17.894531 10.652344 17.882812 10.617188 17.871094 10.578125 C 17.863281 10.542969 17.847656 10.503906 17.832031 10.46875 C 17.816406 10.433594 17.800781 10.398438 17.78125 10.363281 C 17.765625 10.328125 17.742188 10.296875 17.722656 10.265625 C 17.699219 10.230469 17.675781 10.199219 17.652344 10.171875 C 17.625 10.140625 17.601562 10.113281 17.574219 10.085938 C 17.542969 10.058594 17.515625 10.03125 17.484375 10.007812 C 17.453125 9.984375 17.421875 9.960938 17.390625 9.941406 C 17.359375 9.917969 17.324219 9.898438 17.289062 9.882812 C 17.253906 9.863281 17.21875 9.847656 17.183594 9.835938 C 17.148438 9.820312 17.109375 9.808594 17.074219 9.796875 C 17.035156 9.789062 17 9.777344 16.960938 9.773438 C 16.921875 9.765625 16.882812 9.761719 16.84375 9.757812 C 16.816406 9.757812 16.789062 9.753906 16.761719 9.753906 Z M 16.761719 9.753906 "/>
<path style=" stroke:none;fill-rule:nonzero;fill:url(#radial2);" d="M 10.761719 6.480469 C 10.234375 6.480469 9.757812 6.484375 9.335938 6.488281 L 8.195312 6.519531 C 7.855469 6.535156 7.558594 6.554688 7.289062 6.578125 C 7.15625 6.589844 7.03125 6.605469 6.910156 6.621094 C 6.796875 6.632812 6.683594 6.652344 6.570312 6.667969 C 6.460938 6.6875 6.359375 6.707031 6.261719 6.730469 C 6.164062 6.75 6.070312 6.773438 5.980469 6.800781 C 5.890625 6.824219 5.804688 6.851562 5.714844 6.878906 C 5.628906 6.90625 5.546875 6.9375 5.464844 6.972656 C 5.300781 7.035156 5.140625 7.109375 4.976562 7.191406 C 4.851562 7.253906 4.734375 7.316406 4.621094 7.382812 C 4.511719 7.453125 4.40625 7.523438 4.300781 7.601562 C 4.195312 7.679688 4.09375 7.765625 3.992188 7.855469 C 3.890625 7.949219 3.785156 8.054688 3.675781 8.167969 C 3.539062 8.3125 3.421875 8.445312 3.316406 8.578125 C 3.261719 8.644531 3.214844 8.707031 3.167969 8.773438 C 3.121094 8.839844 3.078125 8.902344 3.035156 8.972656 C 2.992188 9.039062 2.953125 9.105469 2.914062 9.175781 C 2.878906 9.246094 2.839844 9.316406 2.808594 9.390625 C 2.738281 9.539062 2.671875 9.703125 2.609375 9.882812 C 2.558594 10.015625 2.515625 10.148438 2.480469 10.285156 C 2.441406 10.421875 2.40625 10.570312 2.375 10.726562 C 2.34375 10.882812 2.316406 11.050781 2.292969 11.238281 C 2.269531 11.445312 2.25 11.648438 2.234375 11.855469 C 2.21875 12.082031 2.203125 12.332031 2.191406 12.609375 L 2.164062 13.53125 L 2.148438 14.652344 L 2.144531 16.011719 L 2.15625 17.988281 L 2.195312 19.484375 L 2.226562 20.070312 L 2.265625 20.554688 C 2.277344 20.683594 2.292969 20.816406 2.308594 20.945312 C 2.324219 21.0625 2.34375 21.160156 2.363281 21.25 C 2.402344 21.425781 2.445312 21.601562 2.5 21.777344 C 2.550781 21.941406 2.609375 22.105469 2.671875 22.269531 C 2.734375 22.425781 2.804688 22.578125 2.882812 22.726562 C 2.957031 22.875 3.039062 23.015625 3.128906 23.148438 C 3.214844 23.285156 3.308594 23.414062 3.410156 23.539062 C 3.511719 23.664062 3.617188 23.785156 3.730469 23.898438 C 3.84375 24.011719 3.960938 24.121094 4.085938 24.222656 C 4.214844 24.324219 4.34375 24.421875 4.480469 24.515625 C 4.609375 24.597656 4.734375 24.675781 4.859375 24.746094 C 4.988281 24.820312 5.113281 24.882812 5.246094 24.941406 C 5.375 25 5.507812 25.054688 5.648438 25.101562 C 5.789062 25.148438 5.9375 25.191406 6.089844 25.230469 C 6.246094 25.265625 6.40625 25.300781 6.582031 25.328125 C 6.753906 25.355469 6.9375 25.382812 7.136719 25.402344 C 7.332031 25.421875 7.542969 25.441406 7.769531 25.457031 C 7.996094 25.46875 8.238281 25.480469 8.5 25.492188 C 8.898438 25.507812 9.507812 25.515625 10.210938 25.519531 L 12.480469 25.511719 L 14.628906 25.484375 L 15.445312 25.460938 L 15.976562 25.433594 C 16.089844 25.421875 16.203125 25.414062 16.3125 25.398438 C 16.417969 25.386719 16.527344 25.371094 16.628906 25.355469 C 16.734375 25.339844 16.835938 25.320312 16.933594 25.300781 C 17.03125 25.277344 17.128906 25.257812 17.226562 25.230469 C 17.324219 25.207031 17.417969 25.179688 17.511719 25.148438 C 17.605469 25.121094 17.699219 25.085938 17.792969 25.054688 C 17.882812 25.019531 17.976562 24.980469 18.066406 24.941406 C 18.160156 24.902344 18.25 24.863281 18.34375 24.816406 C 18.484375 24.75 18.597656 24.691406 18.699219 24.636719 C 18.792969 24.585938 18.882812 24.527344 18.96875 24.464844 C 19.054688 24.402344 19.140625 24.332031 19.238281 24.242188 C 19.335938 24.152344 19.445312 24.042969 19.582031 23.90625 C 19.703125 23.785156 19.804688 23.679688 19.894531 23.585938 C 19.980469 23.488281 20.054688 23.402344 20.117188 23.320312 C 20.179688 23.242188 20.238281 23.160156 20.292969 23.078125 C 20.34375 22.992188 20.390625 22.910156 20.4375 22.8125 C 20.511719 22.671875 20.578125 22.539062 20.636719 22.410156 C 20.691406 22.289062 20.742188 22.160156 20.789062 22.035156 C 20.835938 21.910156 20.875 21.78125 20.910156 21.648438 C 20.945312 21.515625 20.972656 21.375 21 21.21875 C 21.023438 21.066406 21.046875 20.898438 21.066406 20.707031 C 21.085938 20.519531 21.101562 20.3125 21.113281 20.078125 L 21.152344 19.292969 L 21.183594 18.316406 L 21.207031 17.230469 L 21.214844 16.09375 L 21.195312 13.859375 L 21.167969 12.859375 L 21.128906 12 L 21.085938 11.328125 C 21.066406 11.144531 21.050781 10.996094 21.03125 10.898438 C 21.007812 10.789062 20.984375 10.679688 20.957031 10.570312 C 20.933594 10.464844 20.902344 10.359375 20.875 10.253906 C 20.84375 10.152344 20.8125 10.054688 20.777344 9.953125 C 20.742188 9.855469 20.703125 9.757812 20.664062 9.664062 C 20.628906 9.570312 20.585938 9.476562 20.542969 9.386719 C 20.5 9.296875 20.453125 9.207031 20.40625 9.121094 C 20.359375 9.035156 20.308594 8.953125 20.257812 8.871094 C 20.203125 8.789062 20.148438 8.707031 20.09375 8.628906 C 20.039062 8.550781 19.980469 8.476562 19.917969 8.402344 C 19.859375 8.328125 19.796875 8.257812 19.730469 8.1875 C 19.664062 8.121094 19.597656 8.050781 19.527344 7.988281 C 19.460938 7.921875 19.386719 7.859375 19.316406 7.796875 C 19.242188 7.738281 19.164062 7.679688 19.085938 7.621094 C 19.007812 7.5625 18.929688 7.507812 18.847656 7.457031 C 18.765625 7.40625 18.679688 7.355469 18.59375 7.304688 C 18.507812 7.257812 18.417969 7.210938 18.328125 7.167969 C 18.179688 7.09375 18.042969 7.03125 17.90625 6.972656 C 17.773438 6.917969 17.636719 6.867188 17.5 6.824219 C 17.359375 6.78125 17.214844 6.742188 17.058594 6.710938 C 16.898438 6.675781 16.726562 6.648438 16.53125 6.628906 C 16.332031 6.605469 16.113281 6.585938 15.863281 6.570312 C 15.613281 6.554688 15.332031 6.542969 15.011719 6.535156 L 13.917969 6.507812 L 12.535156 6.492188 L 10.765625 6.480469 Z M 11.683594 8.160156 L 14.238281 8.175781 L 15.199219 8.195312 C 15.464844 8.203125 15.667969 8.210938 15.789062 8.222656 C 15.941406 8.234375 16.089844 8.25 16.230469 8.269531 C 16.363281 8.289062 16.5 8.3125 16.632812 8.339844 C 16.761719 8.367188 16.882812 8.398438 17 8.433594 C 17.117188 8.464844 17.230469 8.503906 17.335938 8.546875 C 17.445312 8.589844 17.546875 8.636719 17.644531 8.6875 C 17.742188 8.738281 17.839844 8.796875 17.929688 8.855469 C 18.023438 8.917969 18.113281 8.984375 18.195312 9.054688 C 18.28125 9.125 18.367188 9.199219 18.449219 9.28125 C 18.53125 9.367188 18.613281 9.453125 18.683594 9.542969 C 18.757812 9.632812 18.824219 9.726562 18.886719 9.824219 C 18.949219 9.921875 19.003906 10.023438 19.054688 10.128906 C 19.105469 10.238281 19.148438 10.351562 19.191406 10.472656 C 19.230469 10.589844 19.269531 10.71875 19.300781 10.855469 C 19.332031 11.003906 19.363281 11.148438 19.382812 11.296875 C 19.410156 11.453125 19.429688 11.621094 19.449219 11.796875 C 19.464844 11.976562 19.480469 12.167969 19.492188 12.371094 C 19.5 12.535156 19.511719 12.75 19.515625 13.003906 L 19.535156 13.875 L 19.550781 16 L 19.535156 18.125 L 19.515625 18.992188 L 19.488281 19.621094 C 19.472656 19.917969 19.453125 20.164062 19.429688 20.382812 C 19.417969 20.488281 19.40625 20.589844 19.394531 20.683594 C 19.378906 20.769531 19.363281 20.859375 19.347656 20.945312 C 19.332031 21.027344 19.3125 21.105469 19.292969 21.183594 C 19.273438 21.261719 19.25 21.335938 19.222656 21.410156 C 19.199219 21.480469 19.171875 21.554688 19.140625 21.628906 C 19.109375 21.703125 19.078125 21.78125 19.042969 21.855469 C 19.011719 21.921875 18.980469 21.988281 18.945312 22.050781 C 18.910156 22.113281 18.875 22.175781 18.835938 22.234375 C 18.796875 22.292969 18.757812 22.351562 18.71875 22.410156 C 18.675781 22.464844 18.632812 22.519531 18.585938 22.570312 C 18.542969 22.625 18.496094 22.675781 18.445312 22.726562 C 18.398438 22.773438 18.347656 22.820312 18.292969 22.867188 C 18.242188 22.914062 18.1875 22.957031 18.128906 23 C 18.074219 23.042969 18.015625 23.082031 17.957031 23.121094 C 17.894531 23.160156 17.832031 23.199219 17.769531 23.234375 C 17.703125 23.269531 17.636719 23.304688 17.570312 23.335938 C 17.5 23.367188 17.429688 23.398438 17.359375 23.429688 C 17.285156 23.457031 17.210938 23.484375 17.136719 23.511719 C 16.984375 23.5625 16.824219 23.609375 16.652344 23.648438 C 16.476562 23.6875 16.296875 23.722656 16.117188 23.75 C 16.050781 23.757812 15.890625 23.769531 15.664062 23.777344 L 14.796875 23.800781 L 12.34375 23.832031 L 9.773438 23.835938 L 8.761719 23.824219 L 8.105469 23.804688 L 7.625 23.773438 C 7.472656 23.757812 7.335938 23.746094 7.203125 23.730469 C 7.074219 23.714844 6.949219 23.695312 6.835938 23.675781 C 6.726562 23.65625 6.621094 23.632812 6.511719 23.609375 C 6.414062 23.585938 6.320312 23.554688 6.222656 23.523438 C 6.132812 23.496094 6.042969 23.460938 5.957031 23.421875 C 5.871094 23.386719 5.789062 23.347656 5.707031 23.300781 C 5.625 23.257812 5.542969 23.210938 5.460938 23.15625 C 5.398438 23.117188 5.339844 23.078125 5.28125 23.035156 C 5.222656 22.992188 5.167969 22.953125 5.113281 22.90625 C 5.058594 22.863281 5.007812 22.816406 4.957031 22.769531 C 4.910156 22.722656 4.859375 22.675781 4.816406 22.625 C 4.769531 22.574219 4.726562 22.523438 4.683594 22.46875 C 4.640625 22.417969 4.601562 22.363281 4.5625 22.304688 C 4.523438 22.246094 4.488281 22.1875 4.453125 22.128906 C 4.417969 22.070312 4.386719 22.007812 4.355469 21.941406 C 4.320312 21.875 4.292969 21.808594 4.265625 21.742188 C 4.234375 21.671875 4.210938 21.601562 4.183594 21.527344 C 4.132812 21.382812 4.089844 21.226562 4.050781 21.058594 C 4.015625 20.890625 3.980469 20.714844 3.953125 20.523438 C 3.925781 20.335938 3.902344 20.136719 3.886719 19.921875 C 3.871094 19.765625 3.863281 19.523438 3.855469 19.214844 L 3.839844 18.121094 L 3.84375 15.328125 L 3.890625 12.660156 L 3.929688 11.71875 L 3.949219 11.410156 C 3.957031 11.328125 3.964844 11.265625 3.972656 11.226562 C 3.996094 11.105469 4.023438 10.992188 4.046875 10.886719 C 4.074219 10.789062 4.101562 10.6875 4.128906 10.589844 C 4.160156 10.5 4.1875 10.410156 4.222656 10.328125 C 4.25 10.25 4.285156 10.171875 4.324219 10.09375 C 4.359375 10.019531 4.402344 9.949219 4.445312 9.878906 C 4.488281 9.808594 4.535156 9.742188 4.585938 9.675781 C 4.636719 9.609375 4.691406 9.542969 4.75 9.476562 C 4.808594 9.40625 4.875 9.339844 4.945312 9.269531 C 5.023438 9.1875 5.109375 9.109375 5.199219 9.035156 C 5.28125 8.964844 5.367188 8.898438 5.457031 8.835938 C 5.542969 8.777344 5.636719 8.722656 5.730469 8.671875 C 5.824219 8.621094 5.921875 8.574219 6.023438 8.535156 C 6.128906 8.496094 6.234375 8.457031 6.351562 8.425781 C 6.46875 8.390625 6.59375 8.363281 6.714844 8.339844 C 6.84375 8.3125 6.980469 8.292969 7.128906 8.273438 C 7.273438 8.253906 7.429688 8.238281 7.59375 8.222656 C 7.710938 8.210938 7.910156 8.203125 8.175781 8.195312 L 9.132812 8.175781 Z M 11.683594 8.160156 "/>
</g>
</svg>
